# This file uses centimeters as units for non-parametric coordinates.

mtllib trunk.mtl
g default
v 12.836983 20.199627 -0.157205
v -6.389015 22.565071 -0.157205
v -26.043548 -0.195246 -0.157205
v -9.136671 -26.076060 -0.157205
v 14.032273 -21.010088 -0.157205
v 25.956371 -0.000000 -0.157205
v 9.712348 17.641690 40.981453
v -12.963384 17.768032 38.067590
v -21.888276 -0.623822 32.933178
v -10.051076 -17.820021 34.839101
v 10.345944 -17.783878 39.416350
v 19.913657 -0.139177 37.204751
v -9.090778 -20.211438 19.703690
v -22.642457 1.073770 19.349644
v -11.551853 19.002620 18.813912
v 10.678673 18.354950 20.591759
v 21.472649 -0.020053 20.044319
v 10.670379 -19.849846 18.936784
v 6.577224 11.503052 37.067403
v -7.235794 11.572771 36.312610
v 0.000000 -0.000001 34.645465
v -13.597725 0.073755 34.414116
v -6.635677 -11.482000 33.548194
v 6.917215 -11.574984 34.491651
v 13.418682 -0.070900 35.627745
v -20.148776 15.468638 -0.157205
v -20.122831 -11.168272 19.275608
v -19.485003 -17.048469 -0.157205
v 2.249158 -28.679900 -0.157205
v 8.856713 16.416582 43.919083
v 8.005821 14.753226 42.233060
v -12.506738 16.487004 40.744308
v -10.908181 14.853624 39.738505
v -19.510048 0.069444 36.160710
v -17.386535 0.123761 35.900810
v -9.458740 -16.343589 37.411863
v -8.434328 -14.618257 36.552791
v 9.547297 -16.584287 42.244914
v 8.619494 -14.882716 40.383606
v 17.851883 -0.148618 39.953901
v 16.092528 -0.120320 38.790210
v 17.168793 10.002949 39.024106
v 20.524986 -0.080212 29.856967
v 17.276082 -10.243034 38.319861
v 10.550585 -18.031364 31.140884
v 0.184742 -21.645288 20.094488
v 0.213121 -20.236970 37.541130
v -14.119066 20.089107 -0.157205
v -22.677358 -5.864032 18.804857
v -23.853547 -9.138081 -0.157205
v -3.472295 -28.339238 -0.157205
v 8.421959 15.645556 43.487511
v 13.974748 8.366547 40.479324
v 16.899417 -0.137058 39.657802
v 15.525712 9.305619 41.877719
v -1.970790 18.809618 43.115051
v -11.876662 15.726546 40.525852
v -1.567908 16.919370 41.641905
v -18.301072 9.451006 38.085542
v -18.494575 0.093781 36.214095
v -16.176742 8.544644 37.555498
v -16.289937 -9.289872 35.991770
v -8.966898 -15.526718 37.289646
v -14.550518 -8.277683 35.582375
v 0.165543 -18.808359 40.254125
v 9.093483 -15.798759 41.823519
v 0.196392 -16.856529 38.764668
v 15.650912 -9.571481 41.110567
v 14.112827 -8.587027 39.575210
v -13.007263 17.210373 40.724804
v 9.291969 17.106064 44.011315
v -20.461198 0.100969 35.843027
v -9.910639 -17.071434 37.203294
v 9.988150 -17.273755 42.280105
v 18.939627 -0.155652 39.853306
v -9.392439 13.792869 38.051351
v 7.626428 13.699840 39.672181
v -16.157700 0.109164 35.118484
v -7.860244 -13.615631 34.917436
v 8.118124 -13.801699 37.292846
v 15.441528 -0.097754 37.176300
v 3.029345 23.243100 -0.157205
v -7.774223 21.625434 9.154648
v 0.122848 21.008273 20.492249
v 11.657235 19.173582 10.001180
v -16.899278 16.780966 9.154648
v -24.466114 8.357090 -0.157205
v -24.049652 0.450675 10.001180
v -19.016686 10.113269 19.799120
v -19.679812 -14.308221 10.001180
v -14.526810 -22.503466 -0.157205
v -9.005585 -22.859749 10.001180
v -15.726970 -16.334920 19.502974
v 5.542022 -24.949341 9.154648
v 7.810526 -26.484939 -0.157205
v 13.578173 -19.818183 9.154648
v 21.734864 -11.511083 -0.157205
v 23.455669 -0.000000 10.001180
v 18.367733 -10.507516 20.206053
v 21.734869 11.511082 -0.157205
v 18.352452 10.473138 20.307668
v -0.368402 13.529082 36.989455
v -4.344608 7.221826 35.370508
v 4.151660 7.180526 35.681249
v -12.211865 6.825993 35.375663
v -8.496266 0.041301 34.334707
v -11.834618 -6.688416 33.732512
v -4.151658 -7.180528 33.609673
v 0.177992 -13.518349 33.854084
v 4.344609 -7.221830 33.920433
v 11.924985 -6.829818 35.008892
v 8.496268 -0.041300 34.956195
v 11.755838 6.703203 36.501111
v -21.062276 -7.228929 26.782121
v -9.608532 -18.699108 28.494450
v -17.375334 -10.750742 33.455163
v -22.408669 1.651211 27.078266
v -19.463990 10.223594 35.490114
v -11.960248 18.031367 30.372938
v -1.784825 20.235392 40.280324
v 10.102480 17.951153 32.046727
v 1.514675 21.991569 10.001180
v -21.213757 9.363556 10.001180
v -15.049785 -19.428565 10.001180
v 9.198440 -24.569975 6.615052
v 19.848133 -10.940552 10.001180
v 19.848136 10.940550 10.001180
v -0.128632 9.601567 35.819353
v -8.560582 4.842084 34.921656
v -8.431950 -4.759484 33.747764
v 0.128633 -9.601572 33.471588
v 8.560584 -4.842086 34.369266
v 8.431951 4.759485 35.543140
v -16.712572 -13.203787 27.691586
v -18.930186 10.349475 28.876168
v -1.023290 20.561440 31.648686
v 17.638861 10.211966 30.910363
v 17.699993 -10.349473 30.503900
v 0.463465 -20.561438 30.057641
v -13.404132 20.306086 6.615051
v -22.871268 -3.927981 24.899115
v -23.109052 -7.560863 10.001180
v -1.333817 -24.539639 10.001180
v 14.717102 8.870300 41.514517
v -1.862146 17.931908 42.750827
v -17.363045 9.026653 38.033985
v -15.444523 -8.810521 36.005046
v 0.184304 -17.895280 39.950713
v 14.845031 -9.119715 40.743343
v -2.022837 19.614449 43.196999
v -19.127835 9.887045 37.898747
v -17.083997 -9.691358 35.681850
v 0.144481 -19.620766 40.195446
v 16.527157 -9.964812 41.079078
v 16.403676 9.692001 41.863737
v -0.959077 15.710055 39.325877
v -14.605133 7.935634 36.461502
v -13.610679 -7.715732 34.584455
v 0.197433 -15.667110 36.175450
v 13.457604 -7.950930 37.203965
v 13.295549 7.774869 38.477348
vt 0.032980 0.046835
vt 0.967020 0.119541
vt 0.149456 0.033589
vt 0.335443 0.016698
vt 0.522564 0.017260
vt 0.659948 0.035567
vt 0.817108 0.062410
vt 0.075301 0.426460
vt 0.409423 0.846269
vt 0.843328 0.478518
vt 0.231270 0.376442
vt 0.211914 0.881925
vt 0.346700 0.309942
vt 0.110204 0.748309
vt 0.477558 0.324970
vt 0.150653 0.581388
vt 0.600046 0.406237
vt 0.331225 0.516295
vt 0.733657 0.378866
vt 0.437118 0.660256
vt 0.501954 0.189013
vt 0.334241 0.184671
vt 0.201573 0.190447
vt 0.062738 0.214460
vt 0.901949 0.275623
vt 0.769197 0.234023
vt 0.627528 0.195664
vt 0.329813 0.762625
vt 0.246012 0.788696
vt 0.268665 0.709343
vt 0.185969 0.728722
vt 0.214347 0.650034
vt 0.293199 0.631740
vt 0.351567 0.684067
vt 0.234625 0.024075
vt 0.413469 0.182010
vt 0.447551 0.016320
vt 0.589400 0.021419
vt 0.379666 0.819854
vt 0.363999 0.802817
vt 0.228570 0.850008
vt 0.234794 0.831345
vt 0.142553 0.740572
vt 0.159431 0.736704
vt 0.179199 0.601683
vt 0.193198 0.617234
vt 0.318493 0.553469
vt 0.311081 0.576896
vt 0.404991 0.669819
vt 0.384750 0.675046
vt 0.111487 0.124192
vt 0.278258 0.108352
vt 0.470540 0.103715
vt 0.626139 0.087518
vt 0.718667 0.134239
vt 0.863655 0.172746
vt 0.283876 0.761943
vt 0.224878 0.749556
vt 0.212091 0.693388
vt 0.255909 0.656374
vt 0.311515 0.669685
vt 0.326696 0.719085
vt 0.434076 0.254049
vt 0.280234 0.269755
vt 0.142521 0.304811
vt 0.811870 0.341605
vt 0.682828 0.306020
vt 0.550784 0.282264
vt 0.194951 0.086515
vt 0.368157 0.229898
vt 0.385191 0.103193
vt 0.559374 0.109132
vt 0.400619 0.749066
vt 0.306757 0.845750
vt 0.177953 0.801830
vt 0.153317 0.669533
vt 0.247776 0.567828
vt 0.366274 0.603440
vt 0.309803 0.859309
vt 0.166290 0.811238
vt 0.137474 0.665722
vt 0.243172 0.553496
vt 0.378950 0.592275
vt 0.416764 0.752572
vt 0.298118 0.812432
vt 0.193773 0.782802
vt 0.173048 0.678761
vt 0.249927 0.603518
vt 0.345968 0.630051
vt 0.373434 0.734924
vt 0.091218 0.040212
vt 0.164167 0.111545
vt 0.129380 0.211336
vt 0.047859 0.130648
vt 0.934484 0.197582
vt 0.227152 0.105206
vt 0.285034 0.020386
vt 0.335271 0.104749
vt 0.275364 0.192685
vt 0.429715 0.103057
vt 0.485057 0.016790
vt 0.512236 0.105597
vt 0.454165 0.184761
vt 0.600995 0.105909
vt 0.624674 0.028493
vt 0.658455 0.115723
vt 0.738528 0.048988
vt 0.791993 0.150701
vt 0.699776 0.219809
vt 0.892064 0.090975
vt 0.836504 0.255846
vt 0.291328 0.787535
vt 0.254837 0.756863
vt 0.304979 0.740240
vt 0.206244 0.767741
vt 0.217330 0.721429
vt 0.188275 0.685563
vt 0.235058 0.674303
vt 0.251313 0.629738
vt 0.282807 0.664448
vt 0.330930 0.649682
vt 0.319316 0.694038
vt 0.352976 0.725301
vt 0.391128 0.245723
vt 0.489721 0.263391
vt 0.412129 0.317456
vt 0.130429 0.664848
vt 0.334320 0.250087
vt 0.288985 0.343192
vt 0.161059 0.815117
vt 0.213699 0.288222
vt 0.153286 0.401451
vt 0.310668 0.864097
vt 0.069020 0.320460
vt 0.872638 0.377071
vt 0.788493 0.428692
vt 0.423271 0.753263
vt 0.749225 0.314976
vt 0.666852 0.392551
vt 0.384172 0.588276
vt 0.615681 0.300022
vt 0.558923 0.197311
vt 0.538802 0.365604
vt 0.240939 0.548842
vt 0.192040 0.028832
vt 0.377779 0.178211
vt 0.391497 0.016509
vt 0.555982 0.019340
vt 0.373480 0.813649
vt 0.389003 0.744123
vt 0.395706 0.672248
vt 0.409475 0.751350
vt 0.308608 0.853525
vt 0.231299 0.842701
vt 0.303508 0.833036
vt 0.171822 0.806947
vt 0.150649 0.738865
vt 0.185124 0.794308
vt 0.144958 0.667111
vt 0.185758 0.607849
vt 0.162648 0.673309
vt 0.245440 0.559405
vt 0.315803 0.562136
vt 0.249499 0.581589
vt 0.373170 0.597066
vt 0.357470 0.613676
vt 0.226152 0.855773
vt 0.384316 0.824143
vt 0.135102 0.742343
vt 0.173475 0.597423
vt 0.320390 0.547319
vt 0.413019 0.667611
vt 0.239515 0.813433
vt 0.349465 0.784647
vt 0.168937 0.733568
vt 0.201560 0.631153
vt 0.303085 0.601327
vt 0.371708 0.678361
vn 0.521720 0.838525 0.157109
vn 0.133268 0.982830 0.127611
vn 0.091964 0.987550 0.127620
vn 0.510646 0.848274 0.140256
vn -0.136647 0.987498 0.078578
vn -0.206264 0.970567 0.124315
vn -0.472792 0.874327 0.109633
vn 0.033526 0.995762 0.085641
vn 0.496235 0.863409 0.090976
vn -0.714973 0.672812 0.190100
vn -0.880723 0.427779 0.203302
vn -0.850361 0.517820 0.093537
vn -0.780880 0.598941 0.177472
vn -0.906071 0.358977 0.223986
vn -0.980863 0.031257 0.192174
vn -0.981041 0.097280 0.167616
vn -0.973939 0.212759 0.078591
vn -0.825888 -0.544046 0.148061
vn -0.817589 -0.557359 0.144565
vn -0.621467 -0.755984 0.205590
vn -0.641975 -0.743090 0.188903
vn -0.807811 -0.571341 0.144952
vn -0.616206 -0.758951 0.210438
vn -0.378869 -0.875255 0.300643
vn -0.352433 -0.893472 0.278385
vn -0.338786 -0.917736 0.207325
vn 0.524285 -0.830509 0.188096
vn 0.219709 -0.922481 0.317422
vn 0.535394 -0.823652 0.186952
vn 0.720030 -0.670726 0.177999
vn 0.080870 -0.940679 0.329520
vn 0.511449 -0.842530 0.169005
vn 0.749478 -0.648596 0.132689
vn 0.868953 -0.459912 0.182761
vn 0.868074 -0.462622 0.180076
vn 0.975454 -0.000000 0.220203
vn 0.979992 0.000460 0.199037
vn 0.991230 0.002070 0.132135
vn 0.868513 -0.478845 0.128036
vn 0.832458 0.520674 0.189508
vn 0.837588 0.518915 0.170802
vn 0.852711 0.509912 0.113463
vn -0.243256 -0.497612 0.832591
vn -0.067348 -0.525669 0.848019
vn -0.045579 -0.199748 0.978787
vn -0.065918 -0.176378 0.982113
vn 0.082157 -0.415356 0.905941
vn -0.020495 -0.163625 0.986310
vn -0.036869 -0.121760 0.991875
vn 0.150808 -0.257018 0.954567
vn -0.004856 -0.149450 0.988757
vn 0.170581 -0.108784 0.979320
vn -0.011085 -0.121178 0.992569
vn 0.176734 0.060620 0.982390
vn -0.004090 -0.090390 0.995898
vn 0.106853 0.267779 0.957537
vn -0.020004 -0.072785 0.997147
vn -0.083374 0.423428 0.902085
vn -0.051491 -0.023917 0.998387
vn -0.302620 0.400233 0.865005
vn -0.075194 -0.050757 0.995876
vn -0.436208 0.196628 0.878100
vn -0.104880 -0.061688 0.992570
vn -0.438145 -0.088614 0.894526
vn -0.086499 -0.118909 0.989130
vn -0.372403 -0.335156 0.865440
vn -0.093730 -0.164772 0.981868
vn -0.977384 -0.055171 0.204148
vn -0.878777 -0.436972 0.191851
vn -0.720766 -0.668948 0.181672
vn -0.787776 -0.564467 0.246549
vn -0.388811 -0.911441 0.134544
vn -0.442819 -0.883272 0.154084
vn -0.848246 0.529585 0.004337
vn -0.469903 0.882659 0.010223
vn -0.975320 0.215352 0.048719
vn -0.874974 0.480913 0.056065
vn -0.463375 0.885501 0.034237
vn 0.010512 0.999026 0.042860
vn 0.482256 0.874079 0.058440
vn 0.011210 0.996667 0.080802
vn 0.468940 0.876549 0.108436
vn 0.858961 0.507130 0.070750
vn 0.996870 0.004444 0.078939
vn 0.855309 0.503752 0.121163
vn 0.992325 0.006326 0.123492
vn 0.868872 -0.489628 0.072985
vn 0.518140 -0.851490 0.080595
vn 0.868809 -0.481875 0.113875
vn 0.508261 -0.855029 0.102941
vn 0.011732 -0.977096 0.212473
vn 0.033470 -0.994347 0.100764
vn 0.021140 -0.994058 0.106776
vn -0.469451 0.880977 0.059123
vn -0.460214 0.882963 0.092630
vn -0.968906 -0.228160 0.095727
vn -0.982910 -0.162832 0.085871
vn -0.933529 -0.330920 0.137894
vn -0.947458 -0.292654 0.129138
vn -0.162430 -0.920419 0.355591
vn -0.079903 -0.940059 0.331519
vn -0.068040 -0.255383 0.964443
vn -0.246552 -0.569541 0.784114
vn -0.417587 -0.439014 0.795543
vn -0.040240 -0.256469 0.965715
vn -0.373629 -0.771450 0.515040
vn -0.685418 -0.524987 0.504569
vn -0.874478 -0.026188 0.484357
vn -0.565499 -0.038095 0.823869
vn -0.075235 -0.041379 0.996307
vn -0.124919 -0.589219 0.798259
vn -0.088573 -0.822913 0.561221
vn -0.142994 -0.236769 0.960985
vn -0.174466 -0.218491 0.960116
vn -0.001387 -0.485851 0.874041
vn 0.163895 -0.682045 0.712708
vn 0.088580 -0.313807 0.945346
vn 0.343184 -0.403196 0.848326
vn -0.190971 -0.192665 0.962502
vn -0.196931 -0.131074 0.971616
vn 0.124404 -0.103862 0.986781
vn 0.438227 -0.075840 0.895659
vn 0.125533 0.157351 0.979532
vn 0.454226 0.337579 0.824450
vn -0.196909 -0.042926 0.979482
vn -0.232570 0.046070 0.971488
vn -0.012261 0.429679 0.902898
vn 0.217596 0.714797 0.664619
vn -0.217961 0.556417 0.801806
vn -0.140042 0.838578 0.526474
vn -0.246805 0.102851 0.963592
vn -0.139039 0.148526 0.979085
vn -0.351989 0.515675 0.781142
vn -0.466376 0.740940 0.483221
vn -0.490019 0.377968 0.785507
vn -0.749850 0.472696 0.462907
vn -0.067308 0.175697 0.982141
vn -0.025710 0.907513 0.419237
vn 0.425985 0.787105 0.446097
vn -0.480735 0.781463 0.397755
vn -0.846318 0.318926 0.426652
vn -0.859410 -0.104180 0.500561
vn -0.744462 -0.421251 0.518000
vn -0.483725 -0.742527 0.463318
vn -0.055362 -0.897506 0.437514
vn 0.446786 -0.767204 0.460196
vn 0.783810 -0.386997 0.485669
vn 0.868716 -0.007120 0.495260
vn 0.783611 0.392981 0.481165
vn -0.072990 -0.803560 0.590732
vn -0.384231 -0.753859 0.532976
vn 0.188325 -0.654601 0.732142
vn 0.347607 -0.375493 0.859170
vn 0.431764 -0.078101 0.898599
vn 0.445935 0.282236 0.849403
vn 0.254963 0.648443 0.717297
vn -0.097183 0.809535 0.578972
vn -0.457269 0.728500 0.510092
vn -0.734689 0.425919 0.528039
vn -0.817468 -0.042793 0.574382
vn -0.665971 -0.491552 0.561123
s 1
g New_Assets:pCylinder32
usemtl initialShadingGroup
f 1/1/1 82/91/2 122/51/3 85/94/4
f 82/91/2 2/3/5 83/92/6 122/51/3
f 122/51/3 83/92/6 15/23/7 84/93/8
f 85/94/4 122/51/3 84/93/8 16/24/9
f 15/23/7 86/96/10 123/52/11 89/99/12
f 86/96/10 26/35/13 87/97/14 123/52/11
f 123/52/11 87/97/14 3/4/15 88/98/16
f 89/99/12 123/52/11 88/98/16 14/22/17
f 27/36/18 90/100/19 124/53/20 93/103/21
f 90/100/19 28/37/22 91/101/23 124/53/20
f 124/53/20 91/101/23 4/5/24 92/102/25
f 93/103/21 124/53/20 92/102/25 13/21/26
f 18/27/27 94/104/28 125/54/29 96/106/30
f 29/38/31 95/105/32 125/54/29 94/104/28
f 5/6/33 96/106/30 125/54/29 95/105/32
f 5/6/33 97/107/34 126/55/35 96/106/30
f 97/107/34 6/7/36 98/108/37 126/55/35
f 126/55/35 98/108/37 17/26/38 99/109/39
f 96/106/30 126/55/35 99/109/39 18/27/27
f 6/7/36 100/110/40 127/56/41 98/108/37
f 100/110/40 1/2/1 85/95/4 127/56/41
f 127/56/41 85/95/4 16/25/9 101/111/42
f 98/108/37 127/56/41 101/111/42 17/26/38
f 19/28/43 102/112/44 128/57/45 104/114/46
f 20/29/47 103/113/48 128/57/45 102/112/44
f 21/30/49 104/114/46 128/57/45 103/113/48
f 20/29/47 105/115/50 129/58/51 103/113/48
f 22/31/52 106/116/53 129/58/51 105/115/50
f 21/30/49 103/113/48 129/58/51 106/116/53
f 22/31/52 107/117/54 130/59/55 106/116/53
f 23/32/56 108/118/57 130/59/55 107/117/54
f 21/30/49 106/116/53 130/59/55 108/118/57
f 23/32/56 109/119/58 131/60/59 108/118/57
f 24/33/60 110/120/61 131/60/59 109/119/58
f 21/30/49 108/118/57 131/60/59 110/120/61
f 24/33/60 111/121/62 132/61/63 110/120/61
f 25/34/64 112/122/65 132/61/63 111/121/62
f 21/30/49 110/120/61 132/61/63 112/122/65
f 25/34/64 113/123/66 133/62/67 112/122/65
f 19/28/43 104/114/46 133/62/67 113/123/66
f 21/30/49 112/122/65 133/62/67 104/114/46
f 9/13/68 114/124/69 134/63/70 116/126/71
f 114/124/69 27/36/18 93/103/21 134/63/70
f 134/63/70 93/103/21 13/21/26 115/125/72
f 116/126/71 134/63/70 115/125/72 10/15/73
f 15/23/7 89/99/12 135/64/74 119/131/75
f 89/99/12 14/22/17 117/128/76 135/64/74
f 135/64/74 117/128/76 9/13/68 118/129/77
f 119/131/75 135/64/74 118/129/77 8/11/78
f 16/24/9 84/93/8 136/65/79 121/134/80
f 84/93/8 15/23/7 119/131/75 136/65/79
f 136/65/79 119/131/75 8/11/78 120/132/81
f 121/134/80 136/65/79 120/132/81 7/8/82
f 17/26/38 101/111/42 137/66/83 43/138/84
f 101/111/42 16/25/9 121/135/80 137/66/83
f 137/66/83 121/135/80 7/10/82 42/136/85
f 43/138/84 137/66/83 42/136/85 12/19/86
f 18/27/27 99/109/39 138/67/87 45/141/88
f 99/109/39 17/26/38 43/138/84 138/67/87
f 138/67/87 43/138/84 12/19/86 44/139/89
f 45/141/88 138/67/87 44/139/89 11/17/90
f 13/21/26 46/142/91 139/68/92 115/125/72
f 46/142/91 18/27/27 45/141/88 139/68/92
f 139/68/92 45/141/88 11/17/90 47/143/93
f 115/125/72 139/68/92 47/143/93 10/15/73
f 2/3/5 48/145/94 140/69/95 83/92/6
f 26/35/13 86/96/10 140/69/95 48/145/94
f 15/23/7 83/92/6 140/69/95 86/96/10
f 14/22/17 49/146/96 141/70/97 117/128/76
f 27/36/18 114/124/69 141/70/97 49/146/96
f 9/13/68 117/128/76 141/70/97 114/124/69
f 3/4/15 50/147/98 142/71/99 88/98/16
f 50/147/98 28/37/22 90/100/19 142/71/99
f 142/71/99 90/100/19 27/36/18 49/146/96
f 88/98/16 142/71/99 49/146/96 14/22/17
f 4/5/24 51/148/100 143/72/101 92/102/25
f 51/148/100 29/38/31 94/104/28 143/72/101
f 143/72/101 94/104/28 18/27/27 46/142/91
f 92/102/25 143/72/101 46/142/91 13/21/26
f 30/39/102 52/149/103 144/73/104 55/152/105
f 52/149/103 31/40/106 53/150/107 144/73/104
f 144/73/104 53/150/107 41/50/108 54/151/109
f 55/152/105 144/73/104 54/151/109 40/49/110
f 31/40/106 52/149/103 145/74/111 58/155/112
f 52/149/103 30/39/102 56/153/113 145/74/111
f 145/74/111 56/153/113 32/41/114 57/154/115
f 58/155/112 145/74/111 57/154/115 33/42/116
f 33/42/116 57/154/115 146/75/117 61/158/118
f 57/154/115 32/41/114 59/156/119 146/75/117
f 146/75/117 59/156/119 34/43/120 60/157/121
f 61/158/118 146/75/117 60/157/121 35/44/122
f 35/44/122 60/157/121 147/76/123 64/161/124
f 60/157/121 34/43/120 62/159/125 147/76/123
f 147/76/123 62/159/125 36/45/126 63/160/127
f 64/161/124 147/76/123 63/160/127 37/46/128
f 37/46/128 63/160/127 148/77/129 67/164/130
f 63/160/127 36/45/126 65/162/131 148/77/129
f 148/77/129 65/162/131 38/47/132 66/163/133
f 67/164/130 148/77/129 66/163/133 39/48/134
f 39/48/134 66/163/133 149/78/135 69/166/136
f 66/163/133 38/47/132 68/165/137 149/78/135
f 149/78/135 68/165/137 40/49/110 54/151/109
f 69/166/136 149/78/135 54/151/109 41/50/108
f 7/9/82 120/133/81 150/79/138 71/168/139
f 120/133/81 8/12/78 70/167/140 150/79/138
f 150/79/138 70/167/140 32/41/114 56/153/113
f 71/168/139 150/79/138 56/153/113 30/39/102
f 8/12/78 118/130/77 151/80/141 70/167/140
f 118/130/77 9/14/68 72/169/142 151/80/141
f 151/80/141 72/169/142 34/43/120 59/156/119
f 70/167/140 151/80/141 59/156/119 32/41/114
f 9/14/68 116/127/71 152/81/143 72/169/142
f 116/127/71 10/16/73 73/170/144 152/81/143
f 152/81/143 73/170/144 36/45/126 62/159/125
f 72/169/142 152/81/143 62/159/125 34/43/120
f 10/16/73 47/144/93 153/82/145 73/170/144
f 47/144/93 11/18/90 74/171/146 153/82/145
f 153/82/145 74/171/146 38/47/132 65/162/131
f 73/170/144 153/82/145 65/162/131 36/45/126
f 11/18/90 44/140/89 154/83/147 74/171/146
f 44/140/89 12/20/86 75/172/148 154/83/147
f 154/83/147 75/172/148 40/49/110 68/165/137
f 74/171/146 154/83/147 68/165/137 38/47/132
f 12/20/86 42/137/85 155/84/149 75/172/148
f 42/137/85 7/9/82 71/168/139 155/84/149
f 155/84/149 71/168/139 30/39/102 55/152/105
f 75/172/148 155/84/149 55/152/105 40/49/110
f 31/40/106 58/155/112 156/85/150 77/174/151
f 58/155/112 33/42/116 76/173/152 156/85/150
f 156/85/150 76/173/152 20/29/47 102/112/44
f 77/174/151 156/85/150 102/112/44 19/28/43
f 33/42/116 61/158/118 157/86/153 76/173/152
f 61/158/118 35/44/122 78/175/154 157/86/153
f 157/86/153 78/175/154 22/31/52 105/115/50
f 76/173/152 157/86/153 105/115/50 20/29/47
f 35/44/122 64/161/124 158/87/155 78/175/154
f 64/161/124 37/46/128 79/176/156 158/87/155
f 158/87/155 79/176/156 23/32/56 107/117/54
f 78/175/154 158/87/155 107/117/54 22/31/52
f 37/46/128 67/164/130 159/88/157 79/176/156
f 67/164/130 39/48/134 80/177/158 159/88/157
f 159/88/157 80/177/158 24/33/60 109/119/58
f 79/176/156 159/88/157 109/119/58 23/32/56
f 39/48/134 69/166/136 160/89/159 80/177/158
f 69/166/136 41/50/108 81/178/160 160/89/159
f 160/89/159 81/178/160 25/34/64 111/121/62
f 80/177/158 160/89/159 111/121/62 24/33/60
f 41/50/108 53/150/107 161/90/161 81/178/160
f 53/150/107 31/40/106 77/174/151 161/90/161
f 161/90/161 77/174/151 19/28/43 113/123/66
f 81/178/160 161/90/161 113/123/66 25/34/64
